<?xml version="1.0" encoding="utf-8"?>
<!-- Generator: Adobe Illustrator 16.0.0, SVG Export Plug-In . SVG Version: 6.00 Build 0)  -->
<!DOCTYPE svg PUBLIC "-//W3C//DTD SVG 1.1//EN" "http://www.w3.org/Graphics/SVG/1.1/DTD/svg11.dtd">
<svg version="1.1" id="Circle" xmlns="http://www.w3.org/2000/svg" xmlns:xlink="http://www.w3.org/1999/xlink" x="0px" y="0px"
	 width="640px" height="640px" viewBox="0 0 640 640" enable-background="new 0 0 640 640" xml:space="preserve">
<g>
	<g id="Circumference">
		<g id="CArrows">
			<g id="CUpRight">
				<polygon id="CUpRightHalf" fill="#FFFFFF" points="640,640 640,640 0,0 640,0 				"/>
				<g id="CUpRightOutline">
					<path fill="none" stroke="#000000" stroke-width="8.0151" stroke-miterlimit="10" d="M132.617,132.617
						c103.489-103.489,271.277-103.489,374.766,0c103.489,103.489,103.489,271.277,0,374.766"/>
					<polyline fill="none" stroke="#000000" stroke-width="8" stroke-linecap="round" stroke-miterlimit="10" points="
						132.617,115.617 132.617,132.617 149.617,132.617 					"/>
				</g>
			</g>
			<g id="CDownLeft">
				<polygon id="CDownLeftHalf" fill="#FFFFFF" points="640,640 0,640 0,0 0,0 				"/>
				<g id="CDownLeftOutline">
					<path fill="none" stroke="#000000" stroke-width="8.0151" stroke-miterlimit="10" d="M507.383,507.383
						c-103.488,103.489-271.277,103.489-374.766,0c-103.489-103.488-103.489-271.277,0-374.766"/>
					<polyline fill="none" stroke="#000000" stroke-width="8" stroke-linecap="round" stroke-miterlimit="10" points="
						132.617,149.617 132.617,132.617 115.617,132.617 					"/>
				</g>
			</g>
		</g>
		<g id="CLabel">
			
				<rect x="44.383" y="17.867" transform="matrix(-0.7071 -0.7071 0.7071 -0.7071 113.8681 274.8985)" fill="#FFFFFF" fill-opacity="0" width="138.968" height="191.998"/>
			<g id="CLabel2">
				<path d="M78.277,163.21c-0.271,0.814-1.086,2.172-2.479,3.563c-3.225,3.225-7.688,3.615-11.439-0.136
					c-3.58-3.581-3.58-8.435-0.033-11.982c1.426-1.426,2.631-2.021,3.225-2.207l0.848,1.562c-0.831,0.289-1.832,0.882-2.783,1.833
					c-2.682,2.682-2.749,6.177,0.256,9.182c2.8,2.8,6.211,2.987,8.994,0.204c0.9-0.9,1.629-2.002,1.936-2.885L78.277,163.21z"/>
				<path d="M71.588,149.6c0.526,0.492,0.56,1.273-0.034,1.867c-0.525,0.526-1.307,0.492-1.816-0.017
					c-0.525-0.526-0.543-1.324,0-1.867C70.298,149.022,71.062,149.073,71.588,149.6z M80.447,161.786l-8.214-8.214l1.493-1.494
					l8.215,8.214L80.447,161.786z"/>
				<path d="M78.767,152.163c-0.968-0.968-1.816-1.783-2.631-2.496l1.307-1.307l1.664,1.562l0.067-0.068
					c-0.729-1.477-0.525-3.072,0.476-4.073c0.17-0.169,0.306-0.271,0.475-0.374l1.409,1.409c-0.187,0.119-0.356,0.255-0.56,0.458
					c-1.053,1.052-1.002,2.596-0.086,3.92c0.17,0.238,0.374,0.509,0.629,0.764l4.379,4.378l-1.478,1.477L78.767,152.163z"/>
				<path d="M95.517,146.104c-0.186,0.594-0.779,1.731-1.883,2.834c-2.479,2.478-5.771,2.41-8.283-0.102
					c-2.527-2.528-2.63-6.092,0.052-8.774c0.883-0.883,1.884-1.443,2.495-1.646l0.814,1.494c-0.561,0.153-1.307,0.526-2.121,1.341
					c-1.885,1.884-1.512,4.294,0.203,6.008c1.9,1.901,4.294,1.85,5.924,0.221c0.848-0.849,1.188-1.629,1.426-2.24L95.517,146.104z"
					/>
				<path d="M102.205,135.548c0.848,0.849,1.611,1.578,2.308,2.172l-1.323,1.324l-1.426-1.255l-0.033,0.034
					c0.271,1.052,0.271,2.784-1.189,4.243c-1.289,1.29-3.547,2.121-6.432-0.764l-4.803-4.803l1.493-1.494l4.548,4.548
					c1.563,1.563,3.09,2.139,4.447,0.781c1.001-1.001,1.001-2.393,0.611-3.326c-0.137-0.305-0.357-0.628-0.629-0.899l-5.041-5.041
					l1.494-1.494L102.205,135.548z"/>
				<path d="M100.93,129.321c-0.849-0.849-1.562-1.528-2.291-2.156l1.307-1.307l1.392,1.256l0.051-0.051
					c-0.322-1.24-0.288-2.733,1.07-4.091c1.119-1.12,2.646-1.29,3.971-0.679l0.033-0.034c-0.203-0.713-0.236-1.392-0.152-1.985
					c0.119-0.866,0.459-1.612,1.24-2.394c1.086-1.086,3.41-1.986,6.262,0.866l4.837,4.837l-1.46,1.459l-4.65-4.65
					c-1.578-1.578-3.105-1.952-4.311-0.747c-0.849,0.849-0.882,2.139-0.407,3.123c0.136,0.271,0.356,0.594,0.628,0.865l5.074,5.075
					l-1.459,1.459l-4.922-4.922c-1.307-1.307-2.835-1.68-3.972-0.543c-0.934,0.934-0.865,2.359-0.356,3.344
					c0.136,0.306,0.356,0.594,0.611,0.848l4.955,4.956l-1.459,1.46L100.93,129.321z"/>
				<path d="M121.228,121.005l-7.078-7.077l-1.154,1.154l-1.137-1.137l1.154-1.154l-0.391-0.39
					c-1.154-1.154-1.951-2.461-1.918-3.819c0.018-1.103,0.543-2.07,1.239-2.766c0.526-0.526,1.103-0.866,1.511-1.035l0.95,1.357
					c-0.322,0.119-0.713,0.34-1.138,0.764c-1.272,1.273-0.475,2.715,0.781,3.971l0.441,0.441l1.986-1.986l1.137,1.137l-1.986,1.986
					l7.078,7.077L121.228,121.005z"/>
				<path d="M123.027,111.536c2.053,1.986,4.174,1.527,5.668,0.034c1.069-1.069,1.527-1.9,1.85-2.698l1.324,0.814
					c-0.289,0.764-0.916,1.935-2.224,3.242c-2.528,2.528-5.702,2.375-8.181-0.103c-2.478-2.478-2.97-5.889-0.576-8.282
					c2.682-2.682,5.753-1.036,7.264,0.475c0.305,0.306,0.509,0.578,0.645,0.747L123.027,111.536z M126.335,106.088
					c-0.934-0.968-2.817-2.037-4.498-0.357c-1.51,1.511-0.78,3.564,0.137,4.719L126.335,106.088z"/>
				<path d="M128.88,102.049c-0.967-0.968-1.816-1.782-2.631-2.495l1.308-1.307l1.663,1.562l0.068-0.068
					c-0.73-1.476-0.526-3.072,0.475-4.073c0.17-0.169,0.307-0.271,0.476-0.374l1.409,1.409c-0.188,0.12-0.357,0.255-0.561,0.458
					c-1.053,1.053-1.002,2.596-0.086,3.92c0.17,0.238,0.374,0.509,0.629,0.764l4.379,4.378l-1.477,1.477L128.88,102.049z"/>
				<path d="M137.078,97.484c2.053,1.986,4.175,1.527,5.668,0.034c1.07-1.069,1.528-1.901,1.85-2.698l1.324,0.814
					c-0.288,0.764-0.916,1.935-2.223,3.242c-2.529,2.529-5.703,2.376-8.182-0.102c-2.477-2.478-2.969-5.889-0.576-8.282
					c2.682-2.682,5.754-1.036,7.264,0.475c0.306,0.306,0.51,0.578,0.646,0.747L137.078,97.484z M140.386,92.037
					c-0.933-0.968-2.816-2.037-4.497-0.357c-1.511,1.511-0.78,3.564,0.136,4.719L140.386,92.037z"/>
				<path d="M142.593,87.659c-0.85-0.849-1.563-1.527-2.292-2.156l1.323-1.324l1.443,1.273l0.034-0.034
					c-0.374-1.188-0.187-2.902,1.171-4.26c1.137-1.137,3.581-2.224,6.398,0.594l4.904,4.905l-1.493,1.494l-4.735-4.735
					c-1.324-1.324-2.919-1.935-4.328-0.526c-0.984,0.984-1.052,2.444-0.475,3.53c0.119,0.255,0.34,0.543,0.594,0.798l4.939,4.938
					l-1.494,1.494L142.593,87.659z"/>
				<path d="M163.552,78.07c-0.187,0.594-0.781,1.731-1.884,2.834c-2.478,2.478-5.771,2.41-8.282-0.102
					c-2.529-2.528-2.631-6.092,0.051-8.774c0.883-0.883,1.883-1.443,2.495-1.646l0.813,1.494c-0.56,0.153-1.307,0.526-2.121,1.341
					c-1.883,1.884-1.51,4.294,0.203,6.008c1.902,1.901,4.295,1.85,5.924,0.221c0.85-0.849,1.188-1.629,1.426-2.24L163.552,78.07z"/>
				<path d="M162.601,71.961c2.053,1.986,4.175,1.527,5.668,0.034c1.07-1.069,1.528-1.901,1.851-2.699l1.323,0.815
					c-0.288,0.764-0.916,1.935-2.223,3.242c-2.529,2.529-5.703,2.376-8.182-0.102c-2.477-2.478-2.969-5.889-0.576-8.282
					c2.682-2.682,5.754-1.036,7.264,0.475c0.306,0.306,0.51,0.578,0.646,0.747L162.601,71.961z M165.91,66.513
					c-0.933-0.968-2.816-2.037-4.497-0.357c-1.511,1.511-0.78,3.563,0.136,4.718L165.91,66.513z"/>
			</g>
			
				<text id="CLabel1" transform="matrix(0.7071 -0.7071 0.7071 0.7071 110.4473 131.7837)" font-family="'MicrosoftSansSerif'" font-size="48">C</text>
		</g>
	</g>
	<circle fill="#BADA55" stroke="#8DA529" stroke-width="24" stroke-miterlimit="10" cx="320" cy="320" r="210"/>
	<line fill="none" stroke="#8DA529" stroke-width="24" stroke-miterlimit="10" x1="320" y1="320" x2="530" y2="320"/>
	<circle fill="#8DA529" cx="320" cy="320" r="12.5"/>
	<g id="Radius">
		<g id="RadiusLabel">
			<g id="RadiusLabel2">
				<path d="M393.645,276.039c1.056-0.216,2.568-0.336,4.009-0.336c2.231,0,3.672,0.408,4.68,1.32
					c0.816,0.72,1.273,1.824,1.273,3.072c0,2.136-1.347,3.553-3.05,4.128v0.072c1.248,0.432,1.992,1.584,2.377,3.264
					c0.527,2.256,0.912,3.816,1.248,4.44h-2.16c-0.266-0.456-0.625-1.848-1.079-3.864c-0.48-2.232-1.347-3.072-3.24-3.145h-1.969
					V292h-2.089V276.039z M395.732,283.407h2.137c2.229,0,3.647-1.224,3.647-3.072c0-2.088-1.514-3-3.721-3.024
					c-1.008,0-1.729,0.096-2.063,0.192V283.407z"/>
				<path d="M412.916,292l-0.168-1.464h-0.072c-0.646,0.912-1.895,1.729-3.551,1.729c-2.354,0-3.553-1.656-3.553-3.336
					c0-2.808,2.496-4.344,6.983-4.32v-0.24c0-0.96-0.264-2.688-2.641-2.688c-1.08,0-2.207,0.336-3.023,0.864l-0.479-1.392
					c0.961-0.624,2.352-1.032,3.815-1.032c3.554,0,4.416,2.424,4.416,4.752v4.344c0,1.008,0.05,1.992,0.191,2.784L412.916,292
					L412.916,292z M412.605,286.071c-2.306-0.048-4.923,0.36-4.923,2.616c0,1.368,0.912,2.017,1.992,2.017
					c1.515,0,2.474-0.96,2.81-1.944c0.071-0.216,0.121-0.456,0.121-0.672V286.071z"/>
				<path d="M428.084,274.958V289c0,1.032,0.023,2.208,0.096,3h-1.896l-0.096-2.016h-0.048c-0.647,1.296-2.063,2.28-3.961,2.28
					c-2.809,0-4.969-2.376-4.969-5.905c-0.022-3.864,2.377-6.24,5.209-6.24c1.775,0,2.978,0.84,3.504,1.776h0.049v-6.937H428.084z
					 M425.973,285.111c0-0.264-0.024-0.624-0.096-0.888c-0.313-1.344-1.465-2.448-3.049-2.448c-2.185,0-3.48,1.92-3.48,4.489
					c0,2.352,1.152,4.296,3.433,4.296c1.416,0,2.713-0.936,3.098-2.521c0.07-0.288,0.096-0.576,0.096-0.912L425.973,285.111
					L425.973,285.111z"/>
				<path d="M433.939,277.119c0.022,0.72-0.505,1.296-1.345,1.296c-0.744,0-1.271-0.576-1.271-1.296c0-0.744,0.551-1.32,1.319-1.32
					C433.436,275.799,433.939,276.375,433.939,277.119z M431.588,292v-11.617h2.111V292H431.588z"/>
				<path d="M446.924,288.832c0,1.2,0.025,2.256,0.099,3.168h-1.873l-0.119-1.896h-0.049c-0.554,0.936-1.775,2.16-3.841,2.16
					c-1.823,0-4.01-1.008-4.01-5.088v-6.793h2.113v6.433c0,2.208,0.672,3.696,2.592,3.696c1.416,0,2.4-0.984,2.785-1.92
					c0.119-0.312,0.191-0.696,0.191-1.08v-7.129h2.11L446.924,288.832L446.924,288.832z"/>
				<path d="M450.139,289.84c0.625,0.408,1.729,0.84,2.785,0.84c1.535,0,2.256-0.768,2.256-1.728c0-1.008-0.6-1.56-2.16-2.136
					c-2.088-0.744-3.071-1.896-3.071-3.288c0-1.872,1.512-3.408,4.008-3.408c1.178,0,2.209,0.336,2.857,0.72l-0.529,1.536
					c-0.455-0.288-1.295-0.672-2.375-0.672c-1.248,0-1.945,0.72-1.945,1.584c0,0.96,0.697,1.392,2.209,1.968
					c2.017,0.768,3.049,1.776,3.049,3.504c0,2.04-1.584,3.48-4.346,3.48c-1.271,0-2.447-0.312-3.264-0.792L450.139,289.84z"/>
			</g>
			<text id="RadiusLabel1" transform="matrix(1 0 0 1 423.0186 298.1792)" font-family="'MicrosoftSansSerif'" font-size="48">r</text>
			<rect x="360.333" y="260.5" fill-opacity="0" width="129.334" height="102.654"/>
		</g>
		<g id="RadiusArrows">
			<g id="RadiusLeft">
				<rect id="RadiusLeftSide" x="307.5" y="294.833" fill="#FFFFFF" width="117.5" height="50"/>
				<g id="RadiusLeftArrow">
					<line fill="none" stroke="#000000" stroke-width="8" stroke-miterlimit="10" x1="425" y1="320" x2="530" y2="320"/>
					<polyline fill="none" stroke="#000000" stroke-width="8" stroke-linecap="round" stroke-miterlimit="10" points="
						437.021,332.021 425,320 437.021,307.979 					"/>
				</g>
			</g>
			<g id="RadiusRight">
				<rect id="RadiusRightSide" x="425" y="295" fill="#FFFFFF" width="117.5" height="50"/>
				<g id="RadiusRightArrow">
					<line fill="none" stroke="#000000" stroke-width="8" stroke-miterlimit="10" x1="320" y1="320" x2="425" y2="320"/>
					<polyline fill="none" stroke="#000000" stroke-width="8" stroke-linecap="round" stroke-miterlimit="10" points="
						412.98,307.979 425,319.999 412.98,332.021 					"/>
				</g>
			</g>
		</g>
	</g>
</g>
</svg>
