<?xml version="1.0" encoding="utf-8"?>
<!-- Generator: Adobe Illustrator 16.0.0, SVG Export Plug-In . SVG Version: 6.00 Build 0)  -->
<!DOCTYPE svg PUBLIC "-//W3C//DTD SVG 1.1//EN" "http://www.w3.org/Graphics/SVG/1.1/DTD/svg11.dtd">
<svg version="1.1" id="Circle" xmlns="http://www.w3.org/2000/svg" xmlns:xlink="http://www.w3.org/1999/xlink" x="0px" y="0px"
	 width="640px" height="640px" viewBox="0 0 640 640" enable-background="new 0 0 640 640" xml:space="preserve">
<g>
	<g id="Circumference">
		<g id="CArrows">
			<g id="CUpRight">
				<polygon id="CUpRightHalf" fill="#FFFFFF" points="640,640 640,640 0,0 640,0 				"/>
				<g id="CUpRightOutline">
					<polyline fill="none" stroke="#000000" stroke-width="8" stroke-linecap="round" stroke-miterlimit="10" points="
						150.883,133.883 150.883,150.883 167.883,150.883 					"/>
					<path fill="none" stroke="#000000" stroke-width="8.0151" stroke-miterlimit="10" d="M150.883,150.883
						c93.4-93.4,244.833-93.4,338.233,0s93.4,244.833,0,338.233"/>
				</g>
			</g>
			<g id="CDownLeft">
				<polygon id="CDownLeftHalf" fill="#FFFFFF" points="640,640 0,640 0,0 0,0 				"/>
				<g id="CDownLeftOutline">
					<polyline fill="none" stroke="#000000" stroke-width="8" stroke-linecap="round" stroke-miterlimit="10" points="
						151.234,167.883 151.234,150.883 134.234,150.883 					"/>
					<path fill="none" stroke="#000000" stroke-width="8.0151" stroke-miterlimit="10" d="M489.116,489.116
						c-93.4,93.401-244.833,93.4-338.233,0s-93.4-244.832,0-338.233"/>
				</g>
			</g>
		</g>
		<g id="CLabel">
			
				<rect x="59.969" y="32.96" transform="matrix(-0.7071 -0.7071 0.7071 -0.7071 129.8012 311.68)" fill="#FFFFFF" fill-opacity="0" width="138.966" height="191.994"/>
			<g id="CLabel2">
				<path d="M93.861,178.301c-0.271,0.814-1.086,2.172-2.479,3.563c-3.225,3.225-7.688,3.615-11.439-0.136
					c-3.58-3.581-3.58-8.435-0.033-11.982c1.426-1.426,2.631-2.021,3.225-2.207l0.848,1.562c-0.831,0.289-1.832,0.882-2.783,1.833
					c-2.682,2.682-2.749,6.177,0.256,9.182c2.8,2.8,6.211,2.987,8.994,0.204c0.9-0.9,1.629-2.002,1.936-2.885L93.861,178.301z"/>
				<path d="M87.172,164.691c0.526,0.492,0.56,1.273-0.034,1.867c-0.525,0.526-1.307,0.492-1.816-0.017
					c-0.525-0.526-0.543-1.324,0-1.867C85.882,164.113,86.646,164.164,87.172,164.691z M96.031,176.877l-8.214-8.214l1.493-1.494
					l8.215,8.214L96.031,176.877z"/>
				<path d="M94.351,167.254c-0.968-0.968-1.816-1.783-2.631-2.496l1.307-1.307l1.664,1.562l0.067-0.068
					c-0.729-1.477-0.525-3.072,0.476-4.073c0.17-0.169,0.306-0.271,0.475-0.374l1.409,1.409c-0.187,0.119-0.356,0.255-0.56,0.458
					c-1.053,1.052-1.002,2.596-0.086,3.92c0.17,0.238,0.374,0.509,0.629,0.764l4.379,4.378l-1.478,1.477L94.351,167.254z"/>
				<path d="M111.101,161.195c-0.186,0.594-0.779,1.731-1.883,2.834c-2.479,2.478-5.771,2.41-8.283-0.102
					c-2.527-2.528-2.63-6.092,0.052-8.774c0.883-0.883,1.884-1.443,2.495-1.646l0.814,1.494c-0.561,0.153-1.307,0.526-2.121,1.341
					c-1.885,1.884-1.512,4.294,0.203,6.008c1.9,1.901,4.294,1.85,5.924,0.221c0.848-0.849,1.188-1.629,1.426-2.24L111.101,161.195z"
					/>
				<path d="M117.789,150.639c0.848,0.849,1.611,1.578,2.308,2.172l-1.323,1.324l-1.426-1.255l-0.033,0.034
					c0.271,1.052,0.271,2.784-1.189,4.243c-1.289,1.29-3.547,2.121-6.432-0.764l-4.803-4.803l1.493-1.494l4.548,4.548
					c1.563,1.563,3.09,2.139,4.447,0.781c1.001-1.001,1.001-2.393,0.611-3.326c-0.137-0.305-0.357-0.628-0.629-0.899l-5.041-5.041
					l1.494-1.494L117.789,150.639z"/>
				<path d="M116.514,144.412c-0.849-0.849-1.562-1.528-2.291-2.156l1.307-1.307l1.392,1.256l0.051-0.051
					c-0.322-1.24-0.288-2.733,1.07-4.091c1.119-1.12,2.646-1.29,3.971-0.679l0.033-0.034c-0.203-0.713-0.236-1.392-0.152-1.985
					c0.119-0.866,0.459-1.612,1.24-2.394c1.086-1.086,3.41-1.986,6.262,0.866l4.837,4.837l-1.46,1.459l-4.65-4.65
					c-1.578-1.578-3.105-1.952-4.311-0.747c-0.849,0.849-0.882,2.139-0.407,3.123c0.136,0.271,0.356,0.594,0.628,0.865l5.074,5.075
					l-1.459,1.459l-4.922-4.922c-1.307-1.307-2.835-1.68-3.972-0.543c-0.934,0.934-0.865,2.359-0.356,3.344
					c0.136,0.306,0.356,0.594,0.611,0.848l4.955,4.956l-1.459,1.46L116.514,144.412z"/>
				<path d="M136.812,136.096l-7.078-7.077l-1.154,1.154l-1.137-1.137l1.154-1.154l-0.391-0.39
					c-1.154-1.154-1.951-2.461-1.918-3.819c0.018-1.103,0.543-2.07,1.239-2.766c0.526-0.526,1.103-0.866,1.511-1.035l0.95,1.357
					c-0.322,0.119-0.713,0.34-1.138,0.764c-1.272,1.273-0.475,2.715,0.781,3.971l0.441,0.441l1.986-1.986l1.137,1.137l-1.986,1.986
					l7.078,7.077L136.812,136.096z"/>
				<path d="M138.611,126.627c2.053,1.986,4.174,1.527,5.668,0.034c1.069-1.069,1.527-1.9,1.85-2.698l1.324,0.814
					c-0.289,0.764-0.916,1.935-2.224,3.242c-2.528,2.528-5.702,2.375-8.181-0.103c-2.478-2.478-2.97-5.889-0.576-8.282
					c2.682-2.682,5.753-1.036,7.264,0.475c0.305,0.306,0.509,0.578,0.645,0.747L138.611,126.627z M141.919,121.179
					c-0.934-0.968-2.817-2.037-4.498-0.357c-1.51,1.511-0.78,3.564,0.137,4.719L141.919,121.179z"/>
				<path d="M144.464,117.14c-0.967-0.968-1.816-1.782-2.631-2.495l1.308-1.307l1.663,1.562l0.068-0.068
					c-0.73-1.476-0.526-3.072,0.475-4.073c0.17-0.169,0.307-0.271,0.476-0.374l1.409,1.409c-0.188,0.12-0.357,0.255-0.561,0.458
					c-1.053,1.053-1.002,2.596-0.086,3.92c0.17,0.238,0.374,0.509,0.629,0.764l4.379,4.378l-1.477,1.477L144.464,117.14z"/>
				<path d="M152.662,112.575c2.053,1.986,4.175,1.527,5.668,0.034c1.07-1.069,1.528-1.901,1.85-2.698l1.324,0.814
					c-0.288,0.764-0.916,1.935-2.223,3.242c-2.529,2.529-5.703,2.376-8.182-0.102c-2.477-2.478-2.969-5.889-0.576-8.282
					c2.682-2.682,5.754-1.036,7.264,0.475c0.306,0.306,0.51,0.578,0.646,0.747L152.662,112.575z M155.97,107.128
					c-0.933-0.968-2.816-2.037-4.497-0.357c-1.511,1.511-0.78,3.564,0.136,4.719L155.97,107.128z"/>
				<path d="M158.177,102.75c-0.85-0.849-1.563-1.527-2.292-2.156l1.323-1.324l1.443,1.273l0.034-0.034
					c-0.374-1.188-0.187-2.902,1.171-4.26c1.137-1.137,3.581-2.224,6.398,0.594l4.904,4.905l-1.493,1.494l-4.735-4.735
					c-1.324-1.324-2.919-1.935-4.328-0.526c-0.984,0.984-1.052,2.444-0.475,3.53c0.119,0.255,0.34,0.543,0.594,0.798l4.939,4.938
					l-1.494,1.494L158.177,102.75z"/>
				<path d="M179.136,93.161c-0.187,0.594-0.781,1.731-1.884,2.834c-2.478,2.478-5.771,2.41-8.282-0.102
					c-2.529-2.528-2.631-6.092,0.051-8.774c0.883-0.883,1.883-1.443,2.495-1.646l0.813,1.494c-0.56,0.153-1.307,0.526-2.121,1.341
					c-1.883,1.884-1.51,4.294,0.203,6.008c1.902,1.901,4.295,1.85,5.924,0.221c0.85-0.849,1.188-1.629,1.426-2.24L179.136,93.161z"
					/>
				<path d="M178.185,87.052c2.053,1.986,4.175,1.527,5.668,0.034c1.07-1.069,1.528-1.901,1.851-2.699l1.323,0.815
					c-0.288,0.764-0.916,1.935-2.223,3.242c-2.529,2.529-5.703,2.376-8.182-0.102c-2.477-2.478-2.969-5.889-0.576-8.282
					c2.682-2.682,5.754-1.036,7.264,0.475c0.306,0.306,0.51,0.578,0.646,0.747L178.185,87.052z M181.494,81.604
					c-0.933-0.968-2.816-2.037-4.497-0.357c-1.511,1.511-0.78,3.563,0.136,4.718L181.494,81.604z"/>
			</g>
			<g id="CLabel1">
				
					<circle opacity="0.9" fill="#FFFFFF" stroke="#DDDDDD" stroke-width="8" stroke-miterlimit="10" cx="125.584" cy="122.791" r="40"/>
				<text transform="matrix(1 0 0 1 107.7534 137.8442)" font-family="'MicrosoftSansSerif'" font-size="48">C</text>
			</g>
		</g>
	</g>
	<circle fill="#BADA55" stroke="#8DA529" stroke-width="24" stroke-miterlimit="10" cx="320" cy="320" r="210"/>
	<line fill="none" stroke="#8DA529" stroke-width="24" stroke-miterlimit="10" x1="320" y1="530" x2="320" y2="110"/>
	<line fill="none" stroke="#8DA529" stroke-width="24" stroke-miterlimit="10" x1="320" y1="320" x2="530" y2="320"/>
	<circle fill="#69751F" cx="320" cy="320" r="12.5"/>
	<g id="Diameter">
		<g id="dLabel">
			<rect x="268.994" y="114.755" fill-opacity="0" width="61.309" height="180.078"/>
			<g id="dLabel2">
				<path d="M279.341,263.568c-0.192-1.272-0.336-2.784-0.336-4.44c0-3,0.696-5.136,2.016-6.552c1.32-1.44,3.192-2.28,5.809-2.28
					c2.64,0,4.8,0.816,6.289,2.328c1.512,1.512,2.328,4.008,2.328,7.152c0,1.488-0.072,2.736-0.192,3.792H279.341z M293.646,261.48
					c0.096-0.528,0.12-1.296,0.12-2.112c0-4.464-2.496-6.889-6.865-6.889c-3.816-0.024-6.24,2.136-6.24,6.553
					c0,1.08,0.096,1.896,0.216,2.448H293.646z"/>
				<path d="M280.421,245.304c0.72-0.024,1.296,0.504,1.296,1.344c0,0.744-0.576,1.272-1.296,1.272c-0.744,0-1.32-0.552-1.32-1.32
					C279.101,245.809,279.677,245.304,280.421,245.304z M295.302,247.657h-11.617v-2.112h11.617V247.657z"/>
				<path d="M295.302,235.608l-1.464,0.168v0.072c0.912,0.648,1.729,1.896,1.729,3.552c0,2.353-1.656,3.553-3.336,3.553
					c-2.808,0-4.344-2.497-4.32-6.985h-0.24c-0.96,0-2.688,0.264-2.688,2.64c0,1.08,0.336,2.208,0.864,3.024l-1.392,0.48
					c-0.624-0.96-1.032-2.352-1.032-3.816c0-3.552,2.424-4.417,4.752-4.417h4.344c1.008,0,1.992-0.048,2.784-0.192v1.921H295.302z
					 M289.374,235.92c-0.048,2.304,0.36,4.92,2.616,4.92c1.368,0,2.017-0.912,2.017-1.992c0-1.512-0.96-2.472-1.944-2.808
					c-0.216-0.072-0.456-0.12-0.672-0.12H289.374z"/>
				<path d="M286.83,230.473c-1.2,0-2.184,0.024-3.145,0.096v-1.848l1.873-0.096v-0.072c-1.104-0.648-2.136-1.728-2.136-3.648
					c0-1.584,0.96-2.784,2.328-3.288v-0.048c-0.648-0.36-1.152-0.816-1.512-1.296c-0.528-0.696-0.816-1.464-0.816-2.568
					c0-1.536,1.008-3.816,5.04-3.816h6.841v2.064h-6.577c-2.232,0-3.576,0.816-3.576,2.52c0,1.2,0.888,2.136,1.92,2.497
					c0.288,0.096,0.672,0.168,1.056,0.168h7.177v2.064h-6.96c-1.848,0-3.192,0.816-3.192,2.424c0,1.32,1.056,2.28,2.112,2.616
					c0.312,0.12,0.672,0.168,1.032,0.168h7.009v2.064L286.83,230.473L286.83,230.473z"/>
				<path d="M289.878,209.281c2.856-0.048,4.032-1.872,4.032-3.984c0-1.512-0.264-2.424-0.6-3.216l1.512-0.36
					c0.336,0.744,0.72,2.016,0.72,3.864c0,3.576-2.353,5.712-5.857,5.712s-6.264-2.064-6.264-5.448c0-3.792,3.336-4.801,5.472-4.801
					c0.432,0,0.768,0.048,0.984,0.072L289.878,209.281L289.878,209.281z M288.366,203.088c-1.344-0.024-3.433,0.552-3.433,2.928
					c0,2.136,1.968,3.072,3.433,3.24V203.088z"/>
				<path d="M280.349,195.889h3.336v-3.024h1.608v3.024h6.265c1.44,0,2.256-0.408,2.256-1.584c0-0.552-0.072-0.96-0.144-1.224
					l1.584-0.096c0.168,0.408,0.288,1.056,0.288,1.872c0,0.984-0.312,1.776-0.888,2.28c-0.624,0.6-1.656,0.816-3.024,0.816h-6.336
					v1.8h-1.608v-1.8h-2.784L280.349,195.889z"/>
				<path d="M289.878,189.313c2.856-0.048,4.032-1.872,4.032-3.984c0-1.512-0.264-2.424-0.6-3.216l1.512-0.36
					c0.336,0.744,0.72,2.016,0.72,3.864c0,3.576-2.353,5.712-5.857,5.712s-6.264-2.064-6.264-5.448c0-3.792,3.336-4.801,5.472-4.801
					c0.432,0,0.768,0.048,0.984,0.072L289.878,189.313L289.878,189.313z M288.366,183.121c-1.344-0.024-3.433,0.552-3.433,2.928
					c0,2.136,1.968,3.072,3.433,3.24V183.121z"/>
				<path d="M287.31,178.465c-1.368,0-2.544,0.024-3.625,0.096v-1.848l2.28-0.072v-0.096c-1.56-0.528-2.544-1.8-2.544-3.216
					c0-0.24,0.024-0.408,0.072-0.6h1.992c-0.048,0.216-0.072,0.432-0.072,0.72c0,1.488,1.128,2.544,2.712,2.832
					c0.288,0.048,0.624,0.096,0.984,0.096h6.192v2.088H287.31z"/>
			</g>
			<g id="dLabel1">
				
					<circle opacity="0.9" fill="#FFFFFF" stroke="#DDDDDD" stroke-width="8" stroke-miterlimit="10" cx="287.945" cy="215.724" r="40"/>
				<text transform="matrix(1 0 0 1 275.772 224.8809)" font-family="'MicrosoftSansSerif'" font-size="42">d</text>
			</g>
		</g>
		<g id="dArrows">
			<g id="dDown">
				<rect id="dDownSide" x="294.916" y="319.833" fill="#FFFFFF" width="50" height="230.768"/>
				<g id="dDownArrow">
					
						<line fill="none" stroke="#000000" stroke-width="8" stroke-miterlimit="10" x1="320.083" y1="319.833" x2="320.083" y2="113.614"/>
					<polyline fill="none" stroke="#000000" stroke-width="8.4583" stroke-linecap="round" stroke-miterlimit="10" points="
						332.104,307.204 320.083,319.833 308.063,307.204 					"/>
				</g>
			</g>
			<g id="dUp">
				<rect id="dUpSide" x="295.083" y="89.064" fill="#FFFFFF" width="50" height="230.77"/>
				<g id="dUpArrow">
					
						<line fill="none" stroke="#000000" stroke-width="8" stroke-miterlimit="10" x1="320.084" y1="526.052" x2="320.083" y2="319.833"/>
					<polyline fill="none" stroke="#000000" stroke-width="8" stroke-linecap="round" stroke-miterlimit="10" points="
						308.063,332.688 320.082,319.833 332.104,332.688 					"/>
				</g>
			</g>
		</g>
	</g>
	<g id="Radius">
		<g id="RadiusLabel">
			<g id="RadiusLabel2">
				<path d="M393.645,276.039c1.058-0.216,2.568-0.336,4.011-0.336c2.229,0,3.672,0.408,4.68,1.32
					c0.816,0.72,1.273,1.824,1.273,3.072c0,2.136-1.349,3.553-3.052,4.128v0.072c1.248,0.432,1.992,1.584,2.377,3.264
					c0.527,2.256,0.912,3.816,1.248,4.44h-2.158c-0.268-0.456-0.625-1.848-1.079-3.864c-0.48-2.232-1.349-3.072-3.24-3.145h-1.969
					V292h-2.091V276.039L393.645,276.039z M395.732,283.407h2.137c2.229,0,3.646-1.224,3.646-3.072c0-2.088-1.514-3-3.721-3.024
					c-1.008,0-1.729,0.096-2.063,0.192L395.732,283.407L395.732,283.407z"/>
				<path d="M412.916,292l-0.168-1.464h-0.072c-0.646,0.912-1.895,1.729-3.551,1.729c-2.354,0-3.553-1.656-3.553-3.336
					c0-2.808,2.496-4.344,6.981-4.32v-0.24c0-0.96-0.264-2.688-2.641-2.688c-1.08,0-2.207,0.336-3.023,0.864l-0.479-1.392
					c0.961-0.624,2.352-1.032,3.813-1.032c3.556,0,4.416,2.424,4.416,4.752v4.344c0,1.008,0.052,1.992,0.191,2.784L412.916,292
					L412.916,292z M412.605,286.071c-2.308-0.048-4.925,0.36-4.925,2.616c0,1.368,0.912,2.017,1.992,2.017
					c1.517,0,2.476-0.96,2.812-1.944c0.069-0.216,0.121-0.456,0.121-0.672V286.071z"/>
				<path d="M428.084,274.958V289c0,1.032,0.023,2.208,0.096,3h-1.896l-0.096-2.016h-0.05c-0.646,1.296-2.063,2.28-3.961,2.28
					c-2.809,0-4.969-2.376-4.969-5.905c-0.021-3.864,2.377-6.24,5.209-6.24c1.775,0,2.979,0.84,3.504,1.776h0.049v-6.937H428.084z
					 M425.973,285.111c0-0.264-0.022-0.624-0.096-0.888c-0.313-1.344-1.465-2.448-3.049-2.448c-2.187,0-3.48,1.92-3.48,4.489
					c0,2.352,1.152,4.296,3.435,4.296c1.416,0,2.713-0.936,3.098-2.521c0.07-0.288,0.096-0.576,0.096-0.912L425.973,285.111
					L425.973,285.111z"/>
				<path d="M433.939,277.119c0.021,0.72-0.507,1.296-1.347,1.296c-0.744,0-1.271-0.576-1.271-1.296c0-0.744,0.551-1.32,1.317-1.32
					C433.436,275.799,433.939,276.375,433.939,277.119z M431.588,292v-11.617h2.111V292H431.588z"/>
				<path d="M446.924,288.832c0,1.2,0.025,2.256,0.101,3.168h-1.873l-0.119-1.896h-0.049c-0.556,0.936-1.775,2.16-3.843,2.16
					c-1.821,0-4.01-1.008-4.01-5.088v-6.793h2.113v6.433c0,2.208,0.672,3.696,2.592,3.696c1.416,0,2.4-0.984,2.785-1.92
					c0.119-0.312,0.191-0.696,0.191-1.08v-7.129h2.108L446.924,288.832L446.924,288.832z"/>
				<path d="M450.139,289.84c0.625,0.408,1.729,0.84,2.785,0.84c1.535,0,2.256-0.768,2.256-1.728c0-1.008-0.6-1.56-2.16-2.136
					c-2.088-0.744-3.069-1.896-3.069-3.288c0-1.872,1.512-3.408,4.008-3.408c1.178,0,2.209,0.336,2.857,0.72l-0.529,1.536
					c-0.455-0.288-1.295-0.672-2.375-0.672c-1.248,0-1.945,0.72-1.945,1.584c0,0.96,0.697,1.392,2.209,1.968
					c2.019,0.768,3.049,1.776,3.049,3.504c0,2.04-1.584,3.48-4.346,3.48c-1.271,0-2.447-0.312-3.264-0.792L450.139,289.84z"/>
			</g>
			<g id="RadiusLabel1">
				
					<circle opacity="0.9" fill="#FFFFFF" stroke="#DDDDDD" stroke-width="8" stroke-miterlimit="10" cx="432.631" cy="286.18" r="40"/>
				<text transform="matrix(1 0 0 1 423.0186 298.1797)" font-family="'MicrosoftSansSerif'" font-size="48">r</text>
			</g>
			<rect x="360.333" y="260.5" fill-opacity="0" width="129.334" height="102.654"/>
		</g>
		<g id="RadiusArrows">
			<g id="RadiusLeft">
				<rect id="RadiusLeftSide" x="307.5" y="294.833" fill="#FFFFFF" width="117.5" height="50"/>
				<g id="RadiusLeftArrow">
					<line fill="none" stroke="#000000" stroke-width="8" stroke-miterlimit="10" x1="425" y1="320" x2="530" y2="320"/>
					<polyline fill="none" stroke="#000000" stroke-width="8" stroke-linecap="round" stroke-miterlimit="10" points="
						437.021,332.021 425,320 437.021,307.979 					"/>
				</g>
			</g>
			<g id="RadiusRight">
				<rect id="RadiusRightSide" x="425" y="295" fill="#FFFFFF" width="117.5" height="50"/>
				<g id="RadiusRightArrow">
					<line fill="none" stroke="#000000" stroke-width="8" stroke-miterlimit="10" x1="320" y1="320" x2="425" y2="320"/>
					<polyline fill="none" stroke="#000000" stroke-width="8" stroke-linecap="round" stroke-miterlimit="10" points="
						412.98,307.979 425,319.999 412.98,332.021 					"/>
				</g>
			</g>
		</g>
	</g>
</g>
</svg>
